<svg data-v-0dd9719b="" version="1.0" xmlns="http://www.w3.org/2000/svg" xmlns:xlink="http://www.w3.org/1999/xlink" width="100%" height="100%" viewBox="0 0 340.000000 250.000000" preserveAspectRatio="xMidYMid meet" color-interpolation-filters="sRGB" style="margin: auto;"> <rect data-v-0dd9719b="" x="0" y="0" width="100%" height="100%" fill="#ffffff" fill-opacity="0" class="background"></rect> <rect data-v-0dd9719b="" x="0" y="0" width="100%" height="100%" fill="url(#watermark)" fill-opacity="1" class="watermarklayer"></rect> <g data-v-0dd9719b="" class="iconmbgsvg" transform="translate(81.57999420166016,68.73312282562256)"><g fill="#000000" hollow-target="textNormalTran"><g transform="translate(32.170005798339844,0)" opacity="0.75"><g><rect fill="#000000" fill-opacity="0" stroke-width="2" x="0" y="0" width="112.5" height="112.53376012803841" class="image-rect"></rect> <svg x="0" y="0" width="112.5" height="112.53376012803841" filtersec="colorsb819574969" class="image-svg-svg primary" style="overflow: visible;"><svg xmlns="http://www.w3.org/2000/svg" viewBox="0.000003814697265625 -0.00010585784912109375 99.98429870605469 100.01451110839844"><path d="M60.79 98.82a50 50 0 0 1-55-25.35c9.19-1.45 20.25.1 31.39 9.45a141.54 141.54 0 0 0 23.61 15.9z" fill="#e01c4e"></path><path d="M88.44 82a50.21 50.21 0 0 1-19.58 14.31A138.48 138.48 0 0 1 41 78.36C27.52 67 14.12 65.7 3.27 67.86a49.62 49.62 0 0 1-3-12.62c10.44-5.89 26.35-8.43 45.82 8.87A75.91 75.91 0 0 0 61.68 75a61.6 61.6 0 0 0 26.76 7z" fill="#f47725"></path><path d="M99.55 43.47A50 50 0 0 1 92.72 76a55.52 55.52 0 0 1-28.32-6.33 70.51 70.51 0 0 1-14.4-10c-20.73-18.43-38-17-50-11.12a50 50 0 0 1 2.37-13.87c13.63-3.25 31.12-3.5 49.13 6.59 17.59 9.84 34.34 7.93 48.05 2.2z" fill="#ffc313"></path><path d="M91 21.38a49.88 49.88 0 0 1 7.43 16.13c-12.58 5.51-28 7.55-44-1.43a71.94 71.94 0 0 0-49.43-8 49.68 49.68 0 0 1 6.66-10.23 95.3 95.3 0 0 1 41.84 4.88c12 4.24 24.17 3 35-.48.82-.25 1.65-.57 2.5-.87z" fill="#4dc2d4"></path><path d="M50 0a49.86 49.86 0 0 1 37.06 16.46l-.42.14c-9.68 3.16-20.53 4.27-31.13.52a101.36 101.36 0 0 0-37.38-5.66A49.76 49.76 0 0 1 50 0z" fill="#23b4a7"></path></svg></svg> <!----></g></g> <g transform="translate(0,39.64388084411621)"><g data-gra="path-name" fill-rule="" class="tp-name" transform="translate(0,0)"><g transform="scale(1)"><g><path d="M1.23 0L1.23-3.37 2.99-3.37 2.99-15.35 1.23-15.35 1.23-18.72 9.44-18.72Q10.78-18.72 11.8-18.34 12.83-17.97 13.54-17.33 14.25-16.68 14.61-15.79 14.97-14.89 14.97-13.85L14.97-13.85 14.97-13.53Q14.97-11.93 14.08-10.96 13.18-10 11.82-9.63L11.82-9.63 11.82-9.14Q13.18-8.77 14.08-7.79 14.97-6.82 14.97-5.21L14.97-5.21 14.97-4.89Q14.97-3.85 14.61-2.95 14.25-2.06 13.54-1.4 12.83-0.75 11.8-0.37 10.78 0 9.44 0L9.44 0 1.23 0ZM6.52-7.7L6.52-3.37 9.09-3.37Q10.21-3.37 10.91-3.85 11.6-4.33 11.6-5.45L11.6-5.45 11.6-5.61Q11.6-6.74 10.91-7.22 10.21-7.7 9.09-7.7L9.09-7.7 6.52-7.7ZM6.52-15.35L6.52-11.07 9.09-11.07Q10.21-11.07 10.91-11.54 11.6-12.01 11.6-13.13L11.6-13.13 11.6-13.29Q11.6-14.41 10.91-14.88 10.21-15.35 9.09-15.35L9.09-15.35 6.52-15.35ZM27.51-1.93L27.03-1.93Q26.5-0.67 25.53-0.15 24.57 0.37 23.29 0.37L23.29 0.37Q22.09 0.37 21.03-0.08 19.97-0.53 19.17-1.42 18.37-2.3 17.9-3.56 17.43-4.81 17.43-6.42L17.43-6.42 17.43-6.84Q17.43-8.42 17.89-9.68 18.34-10.94 19.12-11.82 19.89-12.7 20.92-13.17 21.95-13.64 23.13-13.64L23.13-13.64Q24.55-13.64 25.41-13.16 26.28-12.67 26.79-11.66L26.79-11.66 27.27-11.66 27.27-13.26 30.64-13.26 30.64-4.01Q30.64-3.21 31.36-3.21L31.36-3.21 31.87-3.21 31.87 0 29.57 0Q28.66 0 28.09-0.53 27.51-1.07 27.51-1.93L27.51-1.93ZM24.04-2.83L24.04-2.83Q25.51-2.83 26.39-3.81 27.27-4.79 27.27-6.47L27.27-6.47 27.27-6.79Q27.27-8.48 26.39-9.45 25.51-10.43 24.04-10.43L24.04-10.43Q22.57-10.43 21.68-9.45 20.8-8.48 20.8-6.79L20.8-6.79 20.8-6.47Q20.8-4.79 21.68-3.81 22.57-2.83 24.04-2.83ZM44.33 0L44.33-1.93 43.85-1.93Q43.64-1.47 43.33-1.06 43.02-0.64 42.53-0.32 42.03 0 41.35 0.19 40.67 0.37 39.71 0.37L39.71 0.37Q38.48 0.37 37.42-0.07 36.36-0.51 35.57-1.38 34.79-2.25 34.34-3.5 33.9-4.76 33.9-6.39L33.9-6.39 33.9-6.87Q33.9-8.48 34.37-9.73 34.84-10.99 35.66-11.86 36.47-12.73 37.55-13.18 38.64-13.64 39.84-13.64L39.84-13.64Q41.44-13.64 42.38-13.03 43.32-12.43 43.85-11.34L43.85-11.34 44.33-11.34 44.33-18.72 47.7-18.72 47.7 0 44.33 0ZM40.8-2.83L40.8-2.83Q42.38-2.83 43.36-3.84 44.33-4.84 44.33-6.47L44.33-6.47 44.33-6.79Q44.33-8.42 43.36-9.43 42.38-10.43 40.8-10.43L40.8-10.43Q39.22-10.43 38.25-9.45 37.27-8.48 37.27-6.79L37.27-6.79 37.27-6.47Q37.27-4.79 38.25-3.81 39.22-2.83 40.8-2.83ZM63.88-5.53L54.14-5.53Q54.17-4.95 54.43-4.45 54.68-3.96 55.12-3.6 55.56-3.24 56.14-3.03 56.71-2.83 57.35-2.83L57.35-2.83Q58.61-2.83 59.28-3.28 59.95-3.72 60.24-4.33L60.24-4.33 63.13-2.73Q62.89-2.22 62.46-1.67 62.03-1.12 61.35-0.67 60.67-0.21 59.69 0.08 58.72 0.37 57.41 0.37L57.41 0.37Q55.91 0.37 54.68-0.11 53.45-0.59 52.55-1.5 51.66-2.41 51.16-3.72 50.67-5.03 50.67-6.68L50.67-6.68 50.67-6.84Q50.67-8.37 51.19-9.63 51.71-10.88 52.62-11.76 53.53-12.65 54.75-13.14 55.96-13.64 57.35-13.64L57.35-13.64Q59.06-13.64 60.29-13.03 61.52-12.43 62.33-11.51 63.13-10.59 63.5-9.48 63.88-8.37 63.88-7.33L63.88-7.33 63.88-5.53ZM57.33-10.59L57.33-10.59Q56.04-10.59 55.24-9.93 54.44-9.28 54.2-8.42L54.2-8.42 60.45-8.42Q60.29-9.36 59.45-9.97 58.61-10.59 57.33-10.59ZM71.98-18.72L71.98-8.4 72.62-8.4 76.15-13.26 79.84-13.26 79.84-13.1 75.56-7.03 75.56-6.55 80.27-0.16 80.27 0 76.42 0 72.62-5.19 71.98-5.19 71.98 0 68.61 0 68.61-18.72 71.98-18.72ZM83.82 0L83.82-3.21 88.48-3.21 88.48-15.51 83.98-15.51 83.98-18.72 91.84-18.72 91.84-3.21 96.18-3.21 96.18 0 83.82 0ZM109.25-6.31L109.25-13.26 112.62-13.26 112.62 0 109.25 0 109.25-1.93 108.77-1.93Q107.89 0.37 104.97 0.37L104.97 0.37Q103.98 0.37 103.13 0.05 102.27-0.27 101.63-0.94 100.99-1.6 100.63-2.61 100.27-3.61 100.27-4.97L100.27-4.97 100.27-13.26 103.64-13.26 103.64-5.67Q103.64-4.25 104.3-3.46 104.97-2.67 106.31-2.67L106.31-2.67Q107.83-2.67 108.54-3.65 109.25-4.63 109.25-6.31L109.25-6.31ZM119.44-1.93L119.44 0 116.07 0 116.07-18.72 119.44-18.72 119.44-11.34 119.92-11.34Q120.45-12.43 121.47-13.03 122.49-13.64 124.06-13.64L124.06-13.64Q125.24-13.64 126.3-13.18 127.35-12.73 128.14-11.86 128.93-10.99 129.4-9.73 129.87-8.48 129.87-6.87L129.87-6.87 129.87-6.39Q129.87-4.76 129.41-3.5 128.96-2.25 128.18-1.38 127.41-0.51 126.35-0.07 125.29 0.37 124.06 0.37L124.06 0.37Q123.16 0.37 122.49 0.19 121.82 0 121.32-0.32 120.83-0.64 120.49-1.06 120.16-1.47 119.92-1.93L119.92-1.93 119.44-1.93ZM122.97-2.83L122.97-2.83Q124.55-2.83 125.52-3.81 126.5-4.79 126.5-6.47L126.5-6.47 126.5-6.79Q126.5-8.48 125.52-9.45 124.55-10.43 122.97-10.43L122.97-10.43Q121.39-10.43 120.41-9.43 119.44-8.42 119.44-6.79L119.44-6.79 119.44-6.47Q119.44-4.84 120.41-3.84 121.39-2.83 122.97-2.83ZM135.8-1.93L135.8 0 132.43 0 132.43-18.72 135.8-18.72 135.8-11.34 136.28-11.34Q136.82-12.43 137.83-13.03 138.85-13.64 140.43-13.64L140.43-13.64Q141.6-13.64 142.66-13.18 143.72-12.73 144.51-11.86 145.29-10.99 145.76-9.73 146.23-8.48 146.23-6.87L146.23-6.87 146.23-6.39Q146.23-4.76 145.78-3.5 145.32-2.25 144.55-1.38 143.77-0.51 142.71-0.07 141.66 0.37 140.43 0.37L140.43 0.37Q139.52 0.37 138.85 0.19 138.18 0 137.69-0.32 137.19-0.64 136.86-1.06 136.52-1.47 136.28-1.93L136.28-1.93 135.8-1.93ZM139.33-2.83L139.33-2.83Q140.91-2.83 141.89-3.81 142.86-4.79 142.86-6.47L142.86-6.47 142.86-6.79Q142.86-8.48 141.89-9.45 140.91-10.43 139.33-10.43L139.33-10.43Q137.75-10.43 136.78-9.43 135.8-8.42 135.8-6.79L135.8-6.79 135.8-6.47Q135.8-4.84 136.78-3.84 137.75-2.83 139.33-2.83ZM162.06-5.53L152.33-5.53Q152.35-4.95 152.61-4.45 152.86-3.96 153.3-3.6 153.74-3.24 154.32-3.03 154.89-2.83 155.53-2.83L155.53-2.83Q156.79-2.83 157.46-3.28 158.13-3.72 158.42-4.33L158.42-4.33 161.31-2.73Q161.07-2.22 160.64-1.67 160.21-1.12 159.53-0.67 158.85-0.21 157.87 0.08 156.9 0.37 155.59 0.37L155.59 0.37Q154.09 0.37 152.86-0.11 151.63-0.59 150.74-1.5 149.84-2.41 149.34-3.72 148.85-5.03 148.85-6.68L148.85-6.68 148.85-6.84Q148.85-8.37 149.37-9.63 149.89-10.88 150.8-11.76 151.71-12.65 152.93-13.14 154.14-13.64 155.53-13.64L155.53-13.64Q157.25-13.64 158.48-13.03 159.71-12.43 160.51-11.51 161.31-10.59 161.68-9.48 162.06-8.37 162.06-7.33L162.06-7.33 162.06-5.53ZM155.51-10.59L155.51-10.59Q154.22-10.59 153.42-9.93 152.62-9.28 152.38-8.42L152.38-8.42 158.64-8.42Q158.48-9.36 157.63-9.97 156.79-10.59 155.51-10.59ZM169.09-6.9L169.09 0 165.72 0 165.72-13.26 169.09-13.26 169.09-11.28 169.57-11.28Q170.03-12.41 171.04-13.02 172.06-13.64 173.42-13.64L173.42-13.64Q174.39-13.64 175.23-13.33 176.07-13.02 176.71-12.38 177.35-11.74 177.71-10.75 178.07-9.76 178.07-8.4L178.07-8.4 178.07 0 174.71 0 174.71-7.54Q174.71-8.96 174.02-9.77 173.34-10.59 172.06-10.59L172.06-10.59Q170.56-10.59 169.83-9.59 169.09-8.58 169.09-6.9L169.09-6.9Z" transform="translate(-1.2300000190734863, 18.719999313354492)"></path></g> <!----> <!----> <!----> <!----> <!----> <!----> <!----></g></g> <g data-gra="path-slogan" fill-rule="" class="tp-slogan" fill="#000000" transform="translate(5,25.09000015258789)"><rect x="0" height="1" y="3.580000400543213" width="57.925004959106445"></rect> <rect height="1" y="3.580000400543213" width="57.925004959106445" x="108.91500663757324"></rect> <g transform="translate(60.925004959106445,0)"><g transform="scale(1)"><path d="M0-7.87L2.52 0L3.68 0L6.18-7.87L5.16-7.87L3.90-3.62C3.76-3.15 3.64-2.72 3.53-2.32C3.42-1.92 3.29-1.48 3.14-1.02L3.10-1.02C2.94-1.48 2.81-1.92 2.71-2.32C2.60-2.72 2.47-3.15 2.33-3.62L1.07-7.87ZM7.26-7.87L7.26 0L8.26 0L8.26-7.87ZM12.84-7.87L12.84 0L15.35 0C15.79 0 16.19-0.05 16.56-0.14C16.93-0.24 17.24-0.38 17.51-0.58C17.77-0.77 17.98-1.01 18.12-1.30C18.26-1.58 18.34-1.92 18.34-2.30C18.34-2.85 18.18-3.28 17.86-3.59C17.54-3.90 17.09-4.10 16.51-4.19L16.51-4.24C16.98-4.36 17.32-4.57 17.54-4.89C17.77-5.21 17.88-5.56 17.88-5.95C17.88-6.30 17.81-6.59 17.68-6.83C17.55-7.08 17.37-7.28 17.13-7.43C16.89-7.58 16.61-7.69 16.28-7.76C15.95-7.84 15.58-7.87 15.18-7.87ZM15-4.51L13.84-4.51L13.84-7.08L15.05-7.08C15.66-7.08 16.13-6.99 16.43-6.80C16.74-6.61 16.90-6.30 16.90-5.87C16.90-5.43 16.75-5.09 16.46-4.86C16.17-4.63 15.68-4.51 15-4.51ZM15.20-0.79L13.84-0.79L13.84-3.77L15.20-3.77C15.90-3.77 16.43-3.65 16.80-3.43C17.17-3.20 17.35-2.84 17.35-2.35C17.35-1.82 17.16-1.42 16.79-1.17C16.41-0.92 15.88-0.79 15.20-0.79ZM23.24-3.20L20.88-3.20L21.25-4.40C21.40-4.84 21.53-5.28 21.66-5.72C21.79-6.15 21.91-6.60 22.03-7.06L22.08-7.06C22.21-6.60 22.34-6.15 22.46-5.72C22.59-5.28 22.73-4.84 22.87-4.40ZM23.50-2.40L24.24 0L25.31 0L22.64-7.87L21.52-7.87L18.85 0L19.87 0L20.63-2.40ZM26.42-7.87L26.42 0L28.44 0C29.03 0 29.56-0.09 30.01-0.27C30.47-0.45 30.85-0.71 31.16-1.05C31.48-1.39 31.71-1.81 31.87-2.30C32.03-2.79 32.11-3.35 32.11-3.97C32.11-5.23 31.80-6.19 31.16-6.86C30.53-7.54 29.61-7.87 28.39-7.87ZM28.32-0.82L27.42-0.82L27.42-7.06L28.32-7.06C29.24-7.06 29.93-6.79 30.39-6.26C30.85-5.74 31.08-4.97 31.08-3.97C31.08-2.97 30.85-2.20 30.39-1.64C29.93-1.09 29.24-0.82 28.32-0.82ZM33.80-7.87L33.80 0L38.46 0L38.46-0.85L34.80-0.85L34.80-3.71L37.79-3.71L37.79-4.56L34.80-4.56L34.80-7.03L38.34-7.03L38.34-7.87ZM40.15-1.72L39.55-1.02C39.90-0.66 40.30-0.38 40.78-0.17C41.25 0.04 41.76 0.14 42.31 0.14C42.73 0.14 43.10 0.09 43.43-0.03C43.76-0.15 44.04-0.31 44.27-0.51C44.50-0.71 44.68-0.95 44.80-1.22C44.93-1.50 44.99-1.79 44.99-2.10C44.99-2.39 44.95-2.64 44.86-2.86C44.78-3.08 44.66-3.27 44.52-3.44C44.38-3.60 44.20-3.75 44.00-3.87C43.80-3.99 43.59-4.10 43.37-4.20L42.25-4.68C42.09-4.74 41.94-4.81 41.78-4.89C41.63-4.97 41.49-5.05 41.36-5.15C41.24-5.25 41.13-5.37 41.06-5.50C40.98-5.63 40.94-5.80 40.94-5.99C40.94-6.35 41.08-6.63 41.35-6.83C41.61-7.04 41.97-7.14 42.41-7.14C42.78-7.14 43.11-7.07 43.40-6.94C43.69-6.81 43.96-6.63 44.20-6.40L44.74-7.04C44.46-7.33 44.12-7.57 43.72-7.75C43.32-7.93 42.88-8.02 42.41-8.02C42.05-8.02 41.72-7.96 41.42-7.86C41.12-7.76 40.86-7.61 40.64-7.42C40.42-7.23 40.25-7.01 40.12-6.76C40.00-6.50 39.94-6.22 39.94-5.93C39.94-5.64 39.98-5.39 40.08-5.17C40.18-4.95 40.30-4.76 40.45-4.60C40.60-4.44 40.78-4.30 40.97-4.19C41.16-4.08 41.35-3.98 41.53-3.90L42.66-3.41C42.84-3.32 43.02-3.24 43.18-3.16C43.34-3.08 43.47-2.99 43.59-2.89C43.71-2.79 43.80-2.67 43.87-2.53C43.93-2.39 43.97-2.22 43.97-2.02C43.97-1.63 43.82-1.32 43.54-1.09C43.25-0.85 42.84-0.73 42.32-0.73C41.92-0.73 41.52-0.82 41.14-1.00C40.76-1.18 40.43-1.42 40.15-1.72Z" transform="translate(0, 8.016)"></path></g></g></g></g></g></g><defs v-gra="od"></defs></svg>