<?xml version="1.0" encoding="UTF-8" standalone="no"?>
<svg
   xmlns:dc="http://purl.org/dc/elements/1.1/"
   xmlns:cc="http://creativecommons.org/ns#"
   xmlns:rdf="http://www.w3.org/1999/02/22-rdf-syntax-ns#"
   xmlns:svg="http://www.w3.org/2000/svg"
   xmlns="http://www.w3.org/2000/svg"
   xmlns:sodipodi="http://sodipodi.sourceforge.net/DTD/sodipodi-0.dtd"
   xmlns:inkscape="http://www.inkscape.org/namespaces/inkscape"
   data-v-0dd9719b=""
   version="1.0"
   width="176.84"
   height="112.53387"
   viewBox="0 0 176.84 112.53387"
   preserveAspectRatio="xMidYMid meet"
   color-interpolation-filters="sRGB"
   id="svg54"
   sodipodi:docname="logo.svg"
   inkscape:version="1.0.2-2 (e86c870879, 2021-01-15)">
  <metadata
     id="metadata58">
    <rdf:RDF>
      <cc:Work
         rdf:about="">
        <dc:format>image/svg+xml</dc:format>
        <dc:type
           rdf:resource="http://purl.org/dc/dcmitype/StillImage" />
      </cc:Work>
    </rdf:RDF>
  </metadata>
  <sodipodi:namedview
     pagecolor="#ffffff"
     bordercolor="#666666"
     borderopacity="1"
     objecttolerance="10"
     gridtolerance="10"
     guidetolerance="10"
     inkscape:pageopacity="0"
     inkscape:pageshadow="2"
     inkscape:window-width="802"
     inkscape:window-height="480"
     id="namedview56"
     showgrid="false"
     inkscape:zoom="0.894"
     inkscape:cx="38.18801"
     inkscape:cy="16.453821"
     inkscape:window-x="0"
     inkscape:window-y="0"
     inkscape:window-maximized="0"
     inkscape:current-layer="svg54" />
  <rect
     data-v-0dd9719b=""
     x="-81.579994"
     y="-68.733017"
     width="100%"
     height="100%"
     fill="#ffffff"
     fill-opacity="0"
     class="background"
     id="rect2" />
  <rect
     data-v-0dd9719b=""
     x="-81.579994"
     y="-68.733017"
     width="100%"
     height="100%"
     fill="url(#watermark)"
     fill-opacity="1"
     class="watermarklayer"
     id="rect4" />
  <g
     data-v-0dd9719b=""
     class="iconmbgsvg"
     transform="translate(-1.8258667e-7,1.05691e-4)"
     id="g50">
    <g
       fill="#000000"
       hollow-target="textNormalTran"
       id="g48">
      <g
         transform="translate(32.170006)"
         opacity="0.75"
         id="g24">
        <g
           id="g22">
          <rect
             fill="#000000"
             fill-opacity="0"
             stroke-width="2"
             x="0"
             y="0"
             width="112.5"
             height="112.53376"
             class="image-rect"
             id="rect6" />
          <svg
             x="0"
             y="0"
             width="112.5"
             height="112.53376"
             filtersec="colorsb819574969"
             class="image-svg-svg primary"
             style="overflow:visible"
             version="1.1"
             id="svg20">
            <svg
               viewBox="3.8146973e-06 -0.00010585785 99.984299 100.01451"
               version="1.1"
               id="svg18"
               width="100%"
               height="100%">
              <path
                 d="m 60.79,98.82 a 50,50 0 0 1 -55,-25.35 c 9.19,-1.45 20.25,0.1 31.39,9.45 a 141.54,141.54 0 0 0 23.61,15.9 z"
                 fill="#e01c4e"
                 id="path8" />
              <path
                 d="M 88.44,82 A 50.21,50.21 0 0 1 68.86,96.31 138.48,138.48 0 0 1 41,78.36 C 27.52,67 14.12,65.7 3.27,67.86 a 49.62,49.62 0 0 1 -3,-12.62 c 10.44,-5.89 26.35,-8.43 45.82,8.87 A 75.91,75.91 0 0 0 61.68,75 61.6,61.6 0 0 0 88.44,82 Z"
                 fill="#f47725"
                 id="path10" />
              <path
                 d="M 99.55,43.47 A 50,50 0 0 1 92.72,76 55.52,55.52 0 0 1 64.4,69.67 70.51,70.51 0 0 1 50,59.67 C 29.27,41.24 12,42.67 0,48.55 A 50,50 0 0 1 2.37,34.68 c 13.63,-3.25 31.12,-3.5 49.13,6.59 17.59,9.84 34.34,7.93 48.05,2.2 z"
                 fill="#ffc313"
                 id="path12" />
              <path
                 d="m 91,21.38 a 49.88,49.88 0 0 1 7.43,16.13 c -12.58,5.51 -28,7.55 -44,-1.43 A 71.94,71.94 0 0 0 5,28.08 49.68,49.68 0 0 1 11.66,17.85 95.3,95.3 0 0 1 53.5,22.73 c 12,4.24 24.17,3 35,-0.48 0.82,-0.25 1.65,-0.57 2.5,-0.87 z"
                 fill="#4dc2d4"
                 id="path14" />
              <path
                 d="m 50,0 a 49.86,49.86 0 0 1 37.06,16.46 l -0.42,0.14 c -9.68,3.16 -20.53,4.27 -31.13,0.52 A 101.36,101.36 0 0 0 18.13,11.46 49.76,49.76 0 0 1 50,0 Z"
                 fill="#23b4a7"
                 id="path16" />
            </svg>
          </svg>
          <!---->
        </g>
      </g>
      <g
         transform="translate(0,39.643881)"
         id="g46">
        <g
           data-gra="path-name"
           fill-rule=""
           class="tp-name"
           id="g32">
          <g
             id="g30">
            <g
               id="g28">
              <path
                 d="M 1.23,0 V -3.37 H 2.99 V -15.35 H 1.23 v -3.37 h 8.21 q 1.34,0 2.36,0.38 1.03,0.37 1.74,1.01 0.71,0.65 1.07,1.54 0.36,0.9 0.36,1.94 v 0 0.32 q 0,1.6 -0.89,2.57 -0.9,0.96 -2.26,1.33 v 0 0.49 q 1.36,0.37 2.26,1.35 0.89,0.97 0.89,2.58 v 0 0.32 q 0,1.04 -0.36,1.94 -0.36,0.89 -1.07,1.55 -0.71,0.65 -1.74,1.03 Q 10.78,0 9.44,0 v 0 z m 5.29,-7.7 v 4.33 h 2.57 q 1.12,0 1.82,-0.48 0.69,-0.48 0.69,-1.6 v 0 -0.16 q 0,-1.13 -0.69,-1.61 -0.7,-0.48 -1.82,-0.48 v 0 z m 0,-7.65 v 4.28 h 2.57 q 1.12,0 1.82,-0.47 0.69,-0.47 0.69,-1.59 v 0 -0.16 q 0,-1.12 -0.69,-1.59 -0.7,-0.47 -1.82,-0.47 v 0 z m 20.99,13.42 h -0.48 q -0.53,1.26 -1.5,1.78 -0.96,0.52 -2.24,0.52 v 0 q -1.2,0 -2.26,-0.45 -1.06,-0.45 -1.86,-1.34 -0.8,-0.88 -1.27,-2.14 -0.47,-1.25 -0.47,-2.86 v 0 -0.42 q 0,-1.58 0.46,-2.84 0.45,-1.26 1.23,-2.14 0.77,-0.88 1.8,-1.35 1.03,-0.47 2.21,-0.47 v 0 q 1.42,0 2.28,0.48 0.87,0.49 1.38,1.5 v 0 h 0.48 v -1.6 h 3.37 v 9.25 q 0,0.8 0.72,0.8 v 0 h 0.51 V 0 h -2.3 q -0.91,0 -1.48,-0.53 -0.58,-0.54 -0.58,-1.4 z m -3.47,-0.9 v 0 q 1.47,0 2.35,-0.98 0.88,-0.98 0.88,-2.66 v 0 -0.32 q 0,-1.69 -0.88,-2.66 -0.88,-0.98 -2.35,-0.98 v 0 q -1.47,0 -2.36,0.98 -0.88,0.97 -0.88,2.66 v 0 0.32 q 0,1.68 0.88,2.66 0.89,0.98 2.36,0.98 z M 44.33,0 v -1.93 h -0.48 q -0.21,0.46 -0.52,0.87 -0.31,0.42 -0.8,0.74 -0.5,0.32 -1.18,0.51 -0.68,0.18 -1.64,0.18 v 0 q -1.23,0 -2.29,-0.44 Q 36.36,-0.51 35.57,-1.38 34.79,-2.25 34.34,-3.5 33.9,-4.76 33.9,-6.39 v 0 -0.48 q 0,-1.61 0.47,-2.86 0.47,-1.26 1.29,-2.13 0.81,-0.87 1.89,-1.32 1.09,-0.46 2.29,-0.46 v 0 q 1.6,0 2.54,0.61 0.94,0.6 1.47,1.69 v 0 h 0.48 v -7.38 H 47.7 V 0 Z M 40.8,-2.83 v 0 q 1.58,0 2.56,-1.01 0.97,-1 0.97,-2.63 v 0 -0.32 q 0,-1.63 -0.97,-2.64 -0.98,-1 -2.56,-1 v 0 q -1.58,0 -2.55,0.98 -0.98,0.97 -0.98,2.66 v 0 0.32 q 0,1.68 0.98,2.66 0.97,0.98 2.55,0.98 z m 23.08,-2.7 h -9.74 q 0.03,0.58 0.29,1.08 0.25,0.49 0.69,0.85 0.44,0.36 1.02,0.57 0.57,0.2 1.21,0.2 v 0 q 1.26,0 1.93,-0.45 0.67,-0.44 0.96,-1.05 v 0 l 2.89,1.6 q -0.24,0.51 -0.67,1.06 -0.43,0.55 -1.11,1 -0.68,0.46 -1.66,0.75 -0.97,0.29 -2.28,0.29 v 0 q -1.5,0 -2.73,-0.48 -1.23,-0.48 -2.13,-1.39 -0.89,-0.91 -1.39,-2.22 -0.49,-1.31 -0.49,-2.96 v 0 -0.16 q 0,-1.53 0.52,-2.79 0.52,-1.25 1.43,-2.13 0.91,-0.89 2.13,-1.38 1.21,-0.5 2.6,-0.5 v 0 q 1.71,0 2.94,0.61 1.23,0.6 2.04,1.52 0.8,0.92 1.17,2.03 0.38,1.11 0.38,2.15 v 0 z m -6.55,-5.06 v 0 q -1.29,0 -2.09,0.66 -0.8,0.65 -1.04,1.51 v 0 h 6.25 q -0.16,-0.94 -1,-1.55 -0.84,-0.62 -2.12,-0.62 z m 14.65,-8.13 V -8.4 h 0.64 l 3.53,-4.86 h 3.69 v 0.16 l -4.28,6.07 v 0.48 l 4.71,6.39 V 0 h -3.85 l -3.8,-5.19 H 71.98 V 0 H 68.61 V -18.72 Z M 83.82,0 v -3.21 h 4.66 v -12.3 h -4.5 v -3.21 h 7.86 v 15.51 h 4.34 V 0 Z m 25.43,-6.31 v -6.95 h 3.37 V 0 h -3.37 v -1.93 h -0.48 q -0.88,2.3 -3.8,2.3 v 0 q -0.99,0 -1.84,-0.32 -0.86,-0.32 -1.5,-0.99 -0.64,-0.66 -1,-1.67 -0.36,-1 -0.36,-2.36 v 0 -8.29 h 3.37 v 7.59 q 0,1.42 0.66,2.21 0.67,0.79 2.01,0.79 v 0 q 1.52,0 2.23,-0.98 0.71,-0.98 0.71,-2.66 z m 10.19,4.38 V 0 h -3.37 v -18.72 h 3.37 v 7.38 h 0.48 q 0.53,-1.09 1.55,-1.69 1.02,-0.61 2.59,-0.61 v 0 q 1.18,0 2.24,0.46 1.05,0.45 1.84,1.32 0.79,0.87 1.26,2.13 0.47,1.25 0.47,2.86 v 0 0.48 q 0,1.63 -0.46,2.89 -0.45,1.25 -1.23,2.12 -0.77,0.87 -1.83,1.31 -1.06,0.44 -2.29,0.44 v 0 q -0.9,0 -1.57,-0.18 -0.67,-0.19 -1.17,-0.51 -0.49,-0.32 -0.83,-0.74 -0.33,-0.41 -0.57,-0.87 v 0 z m 3.53,-0.9 v 0 q 1.58,0 2.55,-0.98 0.98,-0.98 0.98,-2.66 v 0 -0.32 q 0,-1.69 -0.98,-2.66 -0.97,-0.98 -2.55,-0.98 v 0 q -1.58,0 -2.56,1 -0.97,1.01 -0.97,2.64 v 0 0.32 q 0,1.63 0.97,2.63 0.98,1.01 2.56,1.01 z m 12.83,0.9 V 0 h -3.37 v -18.72 h 3.37 v 7.38 h 0.48 q 0.54,-1.09 1.55,-1.69 1.02,-0.61 2.6,-0.61 v 0 q 1.17,0 2.23,0.46 1.06,0.45 1.85,1.32 0.78,0.87 1.25,2.13 0.47,1.25 0.47,2.86 v 0 0.48 q 0,1.63 -0.45,2.89 -0.46,1.25 -1.23,2.12 -0.78,0.87 -1.84,1.31 -1.05,0.44 -2.28,0.44 v 0 q -0.91,0 -1.58,-0.18 -0.67,-0.19 -1.16,-0.51 -0.5,-0.32 -0.83,-0.74 -0.34,-0.41 -0.58,-0.87 v 0 z m 3.53,-0.9 v 0 q 1.58,0 2.56,-0.98 0.97,-0.98 0.97,-2.66 v 0 -0.32 q 0,-1.69 -0.97,-2.66 -0.98,-0.98 -2.56,-0.98 v 0 q -1.58,0 -2.55,1 -0.98,1.01 -0.98,2.64 v 0 0.32 q 0,1.63 0.98,2.63 0.97,1.01 2.55,1.01 z m 22.73,-2.7 h -9.73 q 0.02,0.58 0.28,1.08 0.25,0.49 0.69,0.85 0.44,0.36 1.02,0.57 0.57,0.2 1.21,0.2 v 0 q 1.26,0 1.93,-0.45 0.67,-0.44 0.96,-1.05 v 0 l 2.89,1.6 q -0.24,0.51 -0.67,1.06 -0.43,0.55 -1.11,1 -0.68,0.46 -1.66,0.75 -0.97,0.29 -2.28,0.29 v 0 q -1.5,0 -2.73,-0.48 -1.23,-0.48 -2.12,-1.39 -0.9,-0.91 -1.4,-2.22 -0.49,-1.31 -0.49,-2.96 v 0 -0.16 q 0,-1.53 0.52,-2.79 0.52,-1.25 1.43,-2.13 0.91,-0.89 2.13,-1.38 1.21,-0.5 2.6,-0.5 v 0 q 1.72,0 2.95,0.61 1.23,0.6 2.03,1.52 0.8,0.92 1.17,2.03 0.38,1.11 0.38,2.15 v 0 z m -6.55,-5.06 v 0 q -1.29,0 -2.09,0.66 -0.8,0.65 -1.04,1.51 v 0 h 6.26 q -0.16,-0.94 -1.01,-1.55 -0.84,-0.62 -2.12,-0.62 z m 13.58,3.69 V 0 h -3.37 v -13.26 h 3.37 v 1.98 h 0.48 q 0.46,-1.13 1.47,-1.74 1.02,-0.62 2.38,-0.62 v 0 q 0.97,0 1.81,0.31 0.84,0.31 1.48,0.95 0.64,0.64 1,1.63 0.36,0.99 0.36,2.35 v 0 8.4 h -3.36 v -7.54 q 0,-1.42 -0.69,-2.23 -0.68,-0.82 -1.96,-0.82 v 0 q -1.5,0 -2.23,1 -0.74,1.01 -0.74,2.69 z"
                 transform="translate(-1.23,18.719999)"
                 id="path26" />
            </g>
            <!---->
            <!---->
            <!---->
            <!---->
            <!---->
            <!---->
            <!---->
          </g>
        </g>
        <g
           data-gra="path-slogan"
           fill-rule=""
           class="tp-slogan"
           fill="#000000"
           transform="translate(5,25.09)"
           id="g44">
          <rect
             x="0"
             height="1"
             y="3.5800004"
             width="57.925003"
             id="rect34" />
          <rect
             height="1"
             y="3.5800004"
             width="57.925003"
             x="108.91501"
             id="rect36" />
          <g
             transform="translate(60.925005)"
             id="g42">
            <g
               id="g40">
              <path
                 d="M 0,-7.87 2.52,0 h 1.16 l 2.5,-7.87 H 5.16 L 3.9,-3.62 c -0.14,0.47 -0.26,0.9 -0.37,1.3 -0.11,0.4 -0.24,0.84 -0.39,1.3 H 3.1 C 2.94,-1.48 2.81,-1.92 2.71,-2.32 2.6,-2.72 2.47,-3.15 2.33,-3.62 L 1.07,-7.87 Z m 7.26,0 V 0 h 1 v -7.87 z m 5.58,0 V 0 h 2.51 c 0.44,0 0.84,-0.05 1.21,-0.14 0.37,-0.1 0.68,-0.24 0.95,-0.44 0.26,-0.19 0.47,-0.43 0.61,-0.72 0.14,-0.28 0.22,-0.62 0.22,-1 0,-0.55 -0.16,-0.98 -0.48,-1.29 -0.32,-0.31 -0.77,-0.51 -1.35,-0.6 v -0.05 c 0.47,-0.12 0.81,-0.33 1.03,-0.65 0.23,-0.32 0.34,-0.67 0.34,-1.06 0,-0.35 -0.07,-0.64 -0.2,-0.88 -0.13,-0.25 -0.31,-0.45 -0.55,-0.6 -0.24,-0.15 -0.52,-0.26 -0.85,-0.33 -0.33,-0.08 -0.7,-0.11 -1.1,-0.11 z M 15,-4.51 h -1.16 v -2.57 h 1.21 c 0.61,0 1.08,0.09 1.38,0.28 0.31,0.19 0.47,0.5 0.47,0.93 0,0.44 -0.15,0.78 -0.44,1.01 -0.29,0.23 -0.78,0.35 -1.46,0.35 z m 0.2,3.72 h -1.36 v -2.98 h 1.36 c 0.7,0 1.23,0.12 1.6,0.34 0.37,0.23 0.55,0.59 0.55,1.08 0,0.53 -0.19,0.93 -0.56,1.18 -0.38,0.25 -0.91,0.38 -1.59,0.38 z m 8.04,-2.41 h -2.36 l 0.37,-1.2 c 0.15,-0.44 0.28,-0.88 0.41,-1.32 0.13,-0.43 0.25,-0.88 0.37,-1.34 h 0.05 c 0.13,0.46 0.26,0.91 0.38,1.34 0.13,0.44 0.27,0.88 0.41,1.32 z m 0.26,0.8 0.74,2.4 h 1.07 L 22.64,-7.87 H 21.52 L 18.85,0 h 1.02 l 0.76,-2.4 z m 2.92,-5.47 V 0 h 2.02 c 0.59,0 1.12,-0.09 1.57,-0.27 0.46,-0.18 0.84,-0.44 1.15,-0.78 0.32,-0.34 0.55,-0.76 0.71,-1.25 0.16,-0.49 0.24,-1.05 0.24,-1.67 0,-1.26 -0.31,-2.22 -0.95,-2.89 -0.63,-0.68 -1.55,-1.01 -2.77,-1.01 z m 1.9,7.05 h -0.9 v -6.24 h 0.9 c 0.92,0 1.61,0.27 2.07,0.8 0.46,0.52 0.69,1.29 0.69,2.29 0,1 -0.23,1.77 -0.69,2.33 -0.46,0.55 -1.15,0.82 -2.07,0.82 z M 33.8,-7.87 V 0 h 4.66 V -0.85 H 34.8 v -2.86 h 2.99 V -4.56 H 34.8 v -2.47 h 3.54 v -0.84 z m 6.35,6.15 -0.6,0.7 c 0.35,0.36 0.75,0.64 1.23,0.85 0.47,0.21 0.98,0.31 1.53,0.31 0.42,0 0.79,-0.05 1.12,-0.17 0.33,-0.12 0.61,-0.28 0.84,-0.48 0.23,-0.2 0.41,-0.44 0.53,-0.71 0.13,-0.28 0.19,-0.57 0.19,-0.88 0,-0.29 -0.04,-0.54 -0.13,-0.76 -0.08,-0.22 -0.2,-0.41 -0.34,-0.58 C 44.38,-3.6 44.2,-3.75 44,-3.87 43.8,-3.99 43.59,-4.1 43.37,-4.2 l -1.12,-0.48 c -0.16,-0.06 -0.31,-0.13 -0.47,-0.21 -0.15,-0.08 -0.29,-0.16 -0.42,-0.26 -0.12,-0.1 -0.23,-0.22 -0.3,-0.35 -0.08,-0.13 -0.12,-0.3 -0.12,-0.49 0,-0.36 0.14,-0.64 0.41,-0.84 0.26,-0.21 0.62,-0.31 1.06,-0.31 0.37,0 0.7,0.07 0.99,0.2 0.29,0.13 0.56,0.31 0.8,0.54 l 0.54,-0.64 c -0.28,-0.29 -0.62,-0.53 -1.02,-0.71 -0.4,-0.18 -0.84,-0.27 -1.31,-0.27 -0.36,0 -0.69,0.06 -0.99,0.16 -0.3,0.1 -0.56,0.25 -0.78,0.44 -0.22,0.19 -0.39,0.41 -0.52,0.66 -0.12,0.26 -0.18,0.54 -0.18,0.83 0,0.29 0.04,0.54 0.14,0.76 0.1,0.22 0.22,0.41 0.37,0.57 0.15,0.16 0.33,0.3 0.52,0.41 0.19,0.11 0.38,0.21 0.56,0.29 l 1.13,0.49 c 0.18,0.09 0.36,0.17 0.52,0.25 0.16,0.08 0.29,0.17 0.41,0.27 0.12,0.1 0.21,0.22 0.28,0.36 0.06,0.14 0.1,0.31 0.1,0.51 0,0.39 -0.15,0.7 -0.43,0.93 -0.29,0.24 -0.7,0.36 -1.22,0.36 -0.4,0 -0.8,-0.09 -1.18,-0.27 -0.38,-0.18 -0.71,-0.42 -0.99,-0.72 z"
                 transform="translate(0,8.016)"
                 id="path38" />
            </g>
          </g>
        </g>
      </g>
    </g>
  </g>
  <defs
     v-gra="od"
     id="defs52" />
</svg>
